<svg width="267" height="237" xmlns="http://www.w3.org/2000/svg" clip-rule="evenodd" version="1.1">
 <g>
  <title>Layer 1</title>
  <g id="svg_3">
   <path id="svg_4" d="m21,17c74.6667,0 149.333,0 224,0c0,1 0,2 0,3c1.667,0 3.333,0 5,0c0,53 0,106 0,159c-7.674,-0.166 -15.341,0 -23,0.5c-27,13.5 -54,27 -81,40.5c-0.999,-13.65 -1.333,-27.317 -1,-41c-39.667,0 -79.3333,0 -119,0c0,-2 0,-4 0,-6c-1.6667,0 -3.3333,0 -5,0c0,-52 0,-104 0,-156z" fill="#180325"/>
  </g>
  <g id="svg_5">
   <path id="svg_6" d="m23,19c73.3333,0 146.667,0 220,0c0,50.6667 0,101.333 0,152c-73.333,0 -146.6667,0 -220,0c0,-50.667 0,-101.3333 0,-152z" fill="#fefffe"/>
  </g>
  <ellipse stroke="#b528eb" ry="18.26531" rx="18.26531" id="svg_12" cy="119.45917" cx="68.36842" fill="#b528eb"/>
  <!-- Centro en x: 68.36842, Centro en y: 119.45917 -->
  <ellipse stroke="#b528eb" ry="18.26531" rx="18.26531" id="svg_13" cy="119.45917" cx="133" fill="#b528eb"/>
  <!-- Centro en x: 133, Centro en y: 119.45917 -->
  <ellipse stroke="#b528eb" ry="18.26531" rx="18.26531" id="svg_14" cy="119.45917" cx="196.92982" fill="#b528eb"/>
  <!-- Centro en x: 196.92982, Centro en y: 119.45917 -->
 </g>

</svg>